Coordinates
version=1
nRows=12
nColumns=24
inDegrees=yes

Units are S.I. units (second, meters, Newtons, ...)
Angles are in degrees.

endheader
time	pelvis_tilt	pelvis_list	pelvis_rotation	pelvis_tx	pelvis_ty	pelvis_tz	hip_flexion_r	hip_adduction_r	hip_rotation_r	knee_angle_r	ankle_angle_r	subtalar_angle_r	mtp_angle_r	hip_flexion_l	hip_adduction_l	hip_rotation_l	knee_angle_l	ankle_angle_l	subtalar_angle_l	mtp_angle_l	lumbar_extension	lumbar_bending	lumbar_rotation
      0.45800000	    -10.78563200	      0.20044178	     -0.70595308	     -0.70687599	      1.03470661	      0.30021980	     36.35710415	      0.47510954	     -4.47924745	    -15.65856164	      9.76949657	      0.42777825	      9.54972620	     -4.33218170	      0.02653805	     -1.08336349	     -7.57130627	     18.22982780	      6.14454069	      7.97920675	     -4.23020425	     -0.10498629	     -2.72273736
      0.46216667	    -10.75733159	      0.26400370	     -0.62493738	     -0.70085031	      1.03355531	      0.30051257	     36.35109021	      0.42215843	     -4.13163671	    -15.53828779	      9.64446851	      0.20385682	      9.54090673	     -4.41270703	      0.04210044	     -1.13412173	     -8.22407428	     18.42947110	      6.43969206	      8.03340960	     -4.22958073	     -0.13546231	     -2.75286344
      0.46633333	    -10.71820903	      0.32698252	     -0.54133373	     -0.69479757	      1.03243625	      0.30081539	     36.34683313	      0.36675037	     -3.81368510	    -15.54545987	      9.51936233	     -0.00466603	      9.53335392	     -4.45900525	      0.04747146	     -1.24384379	     -8.97798810	     18.65832165	      6.84484127	      8.13556566	     -4.23365860	     -0.16384414	     -2.75856289
      0.47050000	    -10.63715283	      0.37165288	     -0.46187440	     -0.68870860	      1.03143149	      0.30110671	     36.30103997	      0.32939093	     -3.51437943	    -15.65885222	      9.37165826	     -0.23920209	      9.52713398	     -4.52247237	      0.02885636	     -1.38410994	     -9.79184600	     18.86841528	      7.28345605	      8.28772117	     -4.29283942	     -0.16377249	     -2.76215985
      0.47466667	    -10.58158998	      0.41723097	     -0.37621644	     -0.68258738	      1.03040953	      0.30140118	     36.29411262	      0.28840043	     -3.24026138	    -15.88999747	      9.21272280	     -0.48268744	      9.52166050	     -4.51926424	      0.00356338	     -1.52473702	    -10.69114526	     19.06049897	      7.73153339	      8.48397642	     -4.30944019	     -0.16351149	     -2.76288139
      0.47883333	    -10.47565198	      0.43857923	     -0.30401551	     -0.67642654	      1.02950061	      0.30170755	     36.24062488	      0.27601048	     -2.99970261	    -16.22510056	      9.01118720	     -0.74372862	      9.51661144	     -4.54209585	     -0.05544349	     -1.73108970	    -11.65616410	     19.25059266	      8.25522265	      8.77922809	     -4.39153063	     -0.11144836	     -2.75189434
      0.48300000	    -10.36099875	      0.45444765	     -0.22041663	     -0.67023493	      1.02865349	      0.30201244	     36.17844583	      0.26387470	     -2.78546211	    -16.64631676	      8.80448157	     -1.01573027	      9.51197039	     -4.53690557	     -0.12922014	     -1.92951874	    -12.69754913	     19.39876685	      8.77465399	      9.16406533	     -4.47303548	     -0.06306049	     -2.74049089
      0.48716667	    -10.25720183	      0.47703674	     -0.13864378	     -0.66402242	      1.02781999	      0.30235427	     36.12846002	      0.25355353	     -2.54768375	    -17.14239757	      8.60997158	     -1.33064477	      9.50672336	     -4.48374250	     -0.20555654	     -2.14141891	    -13.81273566	     19.48191986	      9.30135924	      9.50707968	     -4.53174801	     -0.04423144	     -2.73976192
      0.49133333	    -10.11638167	      0.47699609	     -0.05976645	     -0.65777880	      1.02707278	      0.30269518	     36.04963711	      0.26152143	     -2.37780808	    -17.73014921	      8.38446725	     -1.61709973	      9.49910994	     -4.43546048	     -0.31715231	     -2.39639553	    -15.00499590	     19.55942691	      9.87888626	      9.90657157	     -4.63766617	      0.02431545	     -2.71712477
      0.49550000	     -9.99073830	      0.48101831	      0.01682581	     -0.65152592	      1.02632324	      0.30306669	     35.99423922	      0.27024713	     -2.21301395	    -18.39107353	      8.15267756	     -1.91908259	      9.48759687	     -4.33269219	     -0.43460643	     -2.65630689	    -16.27322705	     19.58383752	     10.45771531	     10.35980700	     -4.71602335	      0.09147521	     -2.69734124
      0.49966667	     -9.81976588	      0.47493604	      0.08974192	     -0.64525677	      1.02569645	      0.30343810	     35.89624680	      0.28621961	     -2.09686332	    -19.11616420	      7.91827248	     -2.17753962	      9.38615506	     -4.25744913	     -0.56657277	     -2.88631207	    -17.56965449	     19.45279780	     10.91068298	     14.81405608	     -4.85426698	      0.16295294	     -2.61841614
      0.50383333	     -9.64689919	      0.45705522	      0.16471990	     -0.63897619	      1.02510213	      0.30384507	     35.79020959	      0.31868476	     -1.97464983	    -19.87320790	      7.68727171	     -2.48731442	      9.37334906	     -4.13632827	     -0.72815203	     -3.16045304	    -18.96905949	     19.37045395	     11.48196232	     14.91429217	     -4.98871142	      0.26869040	     -2.64648647
